<svg width="40" height="40" viewBox="0 0 40 40" fill="none" xmlns="http://www.w3.org/2000/svg">
  <!-- Speech bubble background -->
  <path d="M8 12C8 8.68629 10.6863 6 14 6H26C29.3137 6 32 8.68629 32 12V20C32 23.3137 29.3137 26 26 26H20L16 30V26H14C10.6863 26 8 23.3137 8 20V12Z" fill="url(#gradient1)" stroke="url(#gradient2)" stroke-width="1"/>
  
  <!-- India map outline -->
  <path d="M20 8C18 8 16 9 15 10C14 11 13 12 12 13C11 14 10 15 9 16C8 17 7 18 6 19C5 20 4 21 3 22C2 23 1 24 0 25C1 26 2 27 3 28C4 29 5 30 6 31C7 32 8 33 9 34C10 35 11 36 12 37C13 38 14 39 15 40C16 39 17 38 18 37C19 36 20 35 21 34C22 33 23 32 24 31C25 30 26 29 27 28C28 27 29 26 30 25C29 24 28 23 27 22C26 21 25 20 24 19C23 18 22 17 21 16C20 15 19 14 18 13C17 12 16 11 15 10C14 9 13 8 12 7C11 6 10 5 9 4C8 3 7 2 6 1C5 0 4 1 3 2C2 3 1 4 0 5C1 6 2 7 3 8C4 9 5 10 6 11C7 12 8 13 9 14C10 15 11 16 12 17C13 18 14 19 15 20C16 21 17 22 18 23C19 24 20 25C21 24 22 23 23 22C24 21 25 20 26 19C27 18 28 17 29 16C30 15 31 14 32 13C33 12 34 11 35 10C36 9 37 8 38 7C39 6 40 5 39 4C38 3 37 2 36 1C35 0 34 1 33 2C32 3 31 4 30 5C29 6 28 7 27 8C26 9 25 10 24 11C23 12 22 13 21 14C20 15 19 16 18 17C17 18 16 19 15 20C14 21 13 22 12 23C11 24 10 25 9 26C8 27 7 28 6 29C5 30 4 31 3 32C2 33 1 34 0 35C1 36 2 37 3 38C4 39 5 40 6 39C7 38 8 37 9 36C10 35 11 34 12 33C13 32 14 31 15 30C16 29 17 28 18 27C19 26 20 25" fill="url(#gradient3)" stroke="url(#gradient4)" stroke-width="0.5"/>
  
  <!-- Circuit board pattern -->
  <circle cx="12" cy="14" r="1" fill="url(#gradient5)"/>
  <circle cx="16" cy="16" r="1" fill="url(#gradient5)"/>
  <circle cx="20" cy="18" r="1" fill="url(#gradient5)"/>
  <circle cx="24" cy="16" r="1" fill="url(#gradient5)"/>
  <circle cx="28" cy="14" r="1" fill="url(#gradient5)"/>
  
  <!-- Play button -->
  <circle cx="20" cy="20" r="6" fill="rgba(255,255,255,0.9)" stroke="url(#gradient6)" stroke-width="1"/>
  <path d="M17 17L17 23L23 20L17 17Z" fill="url(#gradient7)"/>
  
  <!-- Gradients -->
  <defs>
    <linearGradient id="gradient1" x1="0%" y1="0%" x2="100%" y2="100%">
      <stop offset="0%" style="stop-color:#00BFFF;stop-opacity:0.1"/>
      <stop offset="50%" style="stop-color:#7209B7;stop-opacity:0.1"/>
      <stop offset="100%" style="stop-color:#F72585;stop-opacity:0.1"/>
    </linearGradient>
    <linearGradient id="gradient2" x1="0%" y1="0%" x2="100%" y2="100%">
      <stop offset="0%" style="stop-color:#00BFFF"/>
      <stop offset="50%" style="stop-color:#7209B7"/>
      <stop offset="100%" style="stop-color:#F72585"/>
    </linearGradient>
    <linearGradient id="gradient3" x1="0%" y1="0%" x2="100%" y2="100%">
      <stop offset="0%" style="stop-color:#00BFFF;stop-opacity:0.8"/>
      <stop offset="50%" style="stop-color:#7209B7;stop-opacity:0.8"/>
      <stop offset="100%" style="stop-color:#F72585;stop-opacity:0.8"/>
    </linearGradient>
    <linearGradient id="gradient4" x1="0%" y1="0%" x2="100%" y2="100%">
      <stop offset="0%" style="stop-color:#00BFFF"/>
      <stop offset="50%" style="stop-color:#7209B7"/>
      <stop offset="100%" style="stop-color:#F72585"/>
    </linearGradient>
    <linearGradient id="gradient5" x1="0%" y1="0%" x2="100%" y2="100%">
      <stop offset="0%" style="stop-color:#00BFFF"/>
      <stop offset="50%" style="stop-color:#7209B7"/>
      <stop offset="100%" style="stop-color:#F72585"/>
    </linearGradient>
    <linearGradient id="gradient6" x1="0%" y1="0%" x2="100%" y2="100%">
      <stop offset="0%" style="stop-color:#7209B7"/>
      <stop offset="100%" style="stop-color:#F72585"/>
    </linearGradient>
    <linearGradient id="gradient7" x1="0%" y1="0%" x2="100%" y2="100%">
      <stop offset="0%" style="stop-color:#7209B7"/>
      <stop offset="100%" style="stop-color:#F72585"/>
    </linearGradient>
  </defs>
</svg>
